PathFileType	4	(X/Y/Z)	C:\Users\gl24\Desktop\Patient 3 Collaboration with Marleny\nms_results\Right\Marker Files\Patient3_NormalGait_1pt0_02_Right_01.trc.trc
DataRate	CameraRate	NumFrames	NumMarkers	Units	OrigDataRate	OrigDataStartFrame	OrigNumFrames
80.459770114943	80.459770114943	4	33	mm	80.459770114943	71	       141
Frame#	Time	L.Toe			L.Midfoot.Superior			Neck			R.Toe			R.Heel			L.Heel			R.Elbow			R.Shoulder			L.Shank.Inferior			L.Shoulder			L.Shank.Superior			R.Shank.Lateral			L.Patella			L.Thigh.Inferior			R.Wrist			R.Midfoot.Superior			L.Shank.Lateral			Sternum			L.Elbow			R.Midfoot.Lateral			L.Thigh.Superior			L.Wrist			R.Thigh.Superior			L.Thigh.Lateral			R.Shank.Inferior			L.Midfoot.Lateral			R.Shank.Superior			R.Thigh.Lateral			L.Asis			R.Thigh.Inferior			R.Patella			Sacral			R.Asis			
		X1	Y1	Z1	X2	Y2	Z2	X3	Y3	Z3	X4	Y4	Z4	X5	Y5	Z5	X6	Y6	Z6	X7	Y7	Z7	X8	Y8	Z8	X9	Y9	Z9	X10	Y10	Z10	X11	Y11	Z11	X12	Y12	Z12	X13	Y13	Z13	X14	Y14	Z14	X15	Y15	Z15	X16	Y16	Z16	X17	Y17	Z17	X18	Y18	Z18	X19	Y19	Z19	X20	Y20	Z20	X21	Y21	Z21	X22	Y22	Z22	X23	Y23	Z23	X24	Y24	Z24	X25	Y25	Z25	X26	Y26	Z26	X27	Y27	Z27	X28	Y28	Z28	X29	Y29	Z29	X30	Y30	Z30	X31	Y31	Z31	X32	Y32	Z32	X33	Y33	Z33	

71	1.260000000000	1015.565291286471	152.437148758903	383.457600899258	890.793409902696	147.581116518578	399.096469806746	464.899135286314	1455.784544884500	509.826818527643	465.078498064437	31.073357017608	555.291981737972	175.368118245799	78.988139403246	534.291385735076	753.416310286783	33.029843292338	440.346487916946	580.608542444224	1072.511278653955	789.204864963794	532.266227184626	1413.619178216821	666.346877744833	793.226012537219	271.027292752259	393.131078255265	514.650800067941	1422.456318194578	353.734645127026	749.262197161792	420.026347302816	376.592155690436	335.177536169868	367.057770237486	652.944371108520	750.598148615127	531.241117061750	401.442429914871	704.771361828585	636.866139234089	382.952137279802	809.542818561420	957.639952324164	786.056540927213	354.549900442487	93.523963413082	555.487528999417	684.746656709083	333.239683795139	336.142338674672	616.248886243928	1358.592960596520	499.147397720107	391.087613418557	1102.813216079738	269.050352687313	256.318986762561	50.603807238145	594.641018488892	669.699865561808	749.114575489562	372.975200354726	421.309200127010	846.658484712719	247.063769261650	583.737053458160	693.494100307669	627.730463535609	607.008490194502	654.954548465761	316.746701151357	354.493396483175	222.987440552200	580.422526776277	827.001269994237	53.651659516496	372.416566769365	430.470537587184	382.812960223551	609.358190827172	479.462442009014	660.631637812368	672.529491012111	586.546268431922	950.921813872658	363.614258746065	545.359066072951	586.070093795955	609.351262331671	492.567924487736	473.429773455706	597.203763088849	415.661805709905	976.913282266213	498.087005798401	588.515560474857	965.299152940840	624.697800651797	
72	1.272428571429	1009.069893666276	144.234311901616	383.992382234181	884.482152619802	142.303920186233	400.359089279240	464.872630479334	1454.207879240930	508.319842819227	452.590740121690	30.865874032177	555.234482299548	164.383856616848	83.230634664662	534.781221226949	744.884382177785	31.527072760794	441.999046024234	580.681045265435	1070.752638609849	787.403295550939	532.279996230441	1411.990547112933	664.830808848804	790.286193270997	267.412995137645	394.770313879266	514.636112940710	1421.029095374801	352.209422401994	749.994157344043	417.285539056146	377.544132095882	330.189211854074	368.360632895695	652.610379223968	753.111089590609	529.854319872207	400.901027309211	707.923094224217	637.849747323386	381.794404199708	809.553600077300	955.798420773572	784.312219770149	343.789461915323	93.904252504857	556.097266936364	683.920171293920	331.702789526863	336.863970983298	616.400215211688	1357.288096986251	497.589089487081	391.981325790850	1101.095370454237	267.141093647800	244.762461535289	52.862181218932	594.861746212489	672.134969882668	750.214198738816	371.128580250805	422.648610487939	844.958699431162	245.461072448768	582.980558135609	691.951978057897	627.172073443850	610.708738335856	654.551614121743	317.542717937754	346.415849822230	223.726896347932	580.666209226058	818.456649422559	50.263536578847	373.699104280087	425.912784046926	382.026973914860	609.075168122452	478.331285788269	659.917385425910	671.634969693887	587.794142129919	949.354347798144	362.062918455636	544.077578577275	584.704367669406	609.061373825479	489.949553817479	471.843496857731	597.045163650788	416.873848555333	975.349768862275	496.505431945700	589.681356487373	963.765551110630	623.206709095931	
73	1.284857142857	1001.542521055862	134.021217288084	385.303335571919	877.158944995774	135.965585235784	401.890060621649	464.859672409773	1452.635312553337	506.655907650183	440.127575389585	30.701992511143	555.169717941588	153.685814071886	87.887276502062	535.189313247607	734.487309506699	30.180532029957	443.261668805266	580.516091354560	1069.016130038348	785.466818363119	532.328557632088	1410.429314560297	663.169020794706	786.569033378677	263.262250149100	396.514325847611	514.679348492899	1419.608659807642	350.540805920394	750.337109849955	414.123751490191	378.542929868301	325.717640425518	369.684674073007	652.167761117489	755.399395090311	527.961865149700	400.520581944248	711.799146353743	638.155770077963	380.540706455325	809.022980954205	953.365568205776	782.528971968425	333.283946737730	94.239558109048	556.690080930560	682.617045360441	329.935449757671	337.401753425792	616.642263236108	1356.103381492550	495.914087837815	393.109812534021	1099.293872077089	265.118021375847	233.359473729323	55.352631591714	595.041903310529	675.790935348392	751.212926865026	369.086269678314	424.689445736711	843.250370327813	243.629346559229	582.597692043114	690.431180567625	626.710863224730	614.857458723426	654.126437540444	318.528961913648	338.733703197393	224.503411112470	580.911455617368	808.380970894848	46.410926502883	374.897421516121	421.896248607222	381.122740352968	608.823348023655	477.554102964850	659.153932182463	670.651845821283	589.674200168705	947.947340724884	360.593542203054	543.274920119200	583.319548552037	608.817696050521	488.095036390177	470.178635136596	597.026862824139	418.501835765967	973.802160599098	494.741178773543	591.150793187516	962.262634899600	621.784011018654	
74	1.297285714286	993.475576540621	122.501946596761	387.262476463141	869.348563412910	129.040000729560	403.559407576818	464.857960027833	1451.082848168334	504.820644337193	427.710575764029	30.594255889623	555.093910988710	143.339896551375	93.011561921740	535.482785049171	723.004680256924	29.192761854562	444.118745060171	580.121078874833	1067.335657507872	783.404940702009	532.372584081583	1408.967386468099	661.372192674897	782.357919573926	258.871118393273	398.180109457642	514.813364275932	1418.196717371945	348.731435602543	750.262960547497	410.721365217050	379.405031509101	321.794540164386	371.037892844500	651.606671696607	757.278831281988	525.693758805105	400.222203220513	715.985890291285	637.557726504732	379.230711930960	807.948617683187	950.367450528321	780.716515141953	323.074960940168	94.506832988008	557.239753884662	680.941336532672	327.990682432456	337.699142051309	616.979350519494	1355.068643017952	494.159021973444	394.495687525876	1097.415781468718	262.993449560165	222.141645495816	58.109955617733	595.161323110603	680.419524839517	751.760087059108	366.866054990572	427.388125995874	841.537936935180	241.582158183092	582.620182416064	688.917493138388	626.376666535560	619.009252590805	653.565107854006	319.476416148345	331.501875918059	225.326750245116	581.154753555137	797.490508367029	42.412382143527	375.973413652479	418.446389162597	380.098979338142	608.620875613070	477.139749439160	658.334844322272	669.578968289915	592.193188138238	946.759391608484	359.233470949715	542.984110160374	581.897363003357	608.653881496153	487.077824929509	468.414718477273	597.155991727356	420.550827398207	972.289673574924	492.779281962025	592.923609301239	960.798570652640	620.450455331439	
